HIERARCHY
ROOT Hips
{
 OFFSET 0.000000 0.000000 0.000000
 CHANNELS 6 Xposition Yposition Zposition Yrotation Xrotation Zrotation
 JOINT Chest
 {
  OFFSET 0.000000 9.588913 -0.003946
  CHANNELS 3 Yrotation Xrotation Zrotation
  JOINT Chest2
  {
   OFFSET 0.000000 9.541882 0.008053
   CHANNELS 3 Yrotation Xrotation Zrotation
   JOINT Chest3
   {
    OFFSET 0.000000 9.501360 0.000000
    CHANNELS 3 Yrotation Xrotation Zrotation
    JOINT Chest4
    {
     OFFSET 0.000000 9.491660 0.000000
     CHANNELS 3 Yrotation Xrotation Zrotation
     JOINT Neck
     {
      OFFSET 0.000000 14.331917 0.000000
      CHANNELS 3 Yrotation Xrotation Zrotation
      JOINT Head
      {
       OFFSET 0.000000 8.884799 0.017034
       CHANNELS 3 Yrotation Xrotation Zrotation
       End Site
       {
        OFFSET 0.000000 16.896195 0.008993
       }
      }
     }
     JOINT RightCollar
     {
      OFFSET -2.923010 9.499495 0.000000
      CHANNELS 3 Yrotation Xrotation Zrotation
      JOINT RightShoulder
      {
       OFFSET -13.795216 0.000000 0.000000
       CHANNELS 3 Yrotation Xrotation Zrotation
       JOINT RightElbow
       {
        OFFSET -30.272209 0.000000 0.000000
        CHANNELS 3 Yrotation Xrotation Zrotation
        JOINT RightWrist
        {
         OFFSET -24.478199 0.000000 0.000000
         CHANNELS 3 Yrotation Xrotation Zrotation
         End Site
         {
          OFFSET -18.090752 0.000000 0.000000
         }
        }
       }
      }
     }
     JOINT LeftCollar
     {
      OFFSET 2.923010 9.499495 0.000000
      CHANNELS 3 Yrotation Xrotation Zrotation
      JOINT LeftShoulder
      {
       OFFSET 13.795216 0.000000 0.000000
       CHANNELS 3 Yrotation Xrotation Zrotation
       JOINT LeftElbow
       {
        OFFSET 30.272209 0.000000 0.000000
        CHANNELS 3 Yrotation Xrotation Zrotation
        JOINT LeftWrist
        {
         OFFSET 24.478199 0.000000 0.000000
         CHANNELS 3 Yrotation Xrotation Zrotation
         End Site
         {
          OFFSET 18.090752 0.000000 0.000000
         }
        }
       }
      }
     }
    }
   }
  }
 }
 JOINT RightHip
 {
  OFFSET -7.826875 0.019532 0.001973
  CHANNELS 3 Yrotation Xrotation Zrotation
  JOINT RightKnee
  {
   OFFSET 0.000000 -40.546152 -0.001885
   CHANNELS 3 Yrotation Xrotation Zrotation
   JOINT RightAnkle
   {
    OFFSET 0.000000 -39.417092 -0.003189
    CHANNELS 3 Yrotation Xrotation Zrotation
    JOINT RightToe
    {
     OFFSET 0.000000 -7.579396 17.243563
     CHANNELS 3 Yrotation Xrotation Zrotation
     End Site
     {
      OFFSET 0.000000 -1.500329 6.694466
     }
    }
   }
  }
 }
 JOINT LeftHip
 {
  OFFSET 7.826875 0.019532 0.001973
  CHANNELS 3 Yrotation Xrotation Zrotation
  JOINT LeftKnee
  {
   OFFSET 0.000000 -40.546152 -0.001885
   CHANNELS 3 Yrotation Xrotation Zrotation
   JOINT LeftAnkle
   {
    OFFSET 0.000000 -39.417092 -0.003189
    CHANNELS 3 Yrotation Xrotation Zrotation
    JOINT LeftToe
    {
     OFFSET 0.000000 -7.579396 17.243563
     CHANNELS 3 Yrotation Xrotation Zrotation
     End Site
     {
      OFFSET 0.000000 -1.500329 6.694466
     }
    }
   }
  }
 }
}
MOTION
Frames: 9
Frame Time: 0.008333
-66.647460 88.411920 -80.625143 74.482896 -7.846306 1.685025 -2.274416 8.307072 1.853795 -0.124223 0.446254 0.096872 -0.215533 0.776123 0.167833 -2.087223 7.878140 1.571847 1.927783 16.728211 -0.937419 3.895058 -4.673824 -2.403580 0.118214 3.664623 -9.008526 -4.420606 -6.590457 89.726618 62.930701 -35.528139 28.813068 29.111308 -24.085492 -5.628252 -4.976120 1.519237 -0.697058 1.533034 -5.076688 -86.587034 -57.844611 -6.567742 -32.547185 3.012033 8.718889 -12.354229 -6.588231 -0.303876 -7.188157 20.856179 14.126149 2.635930 10.763138 -9.964043 -0.259063 -0.034374 -0.011080 -0.060373 -1.651503 -6.819615 5.206950 0.365728 13.969341 4.704175 16.535946 0.383856 -10.030840 0.442546 -0.706428 0.464915
-66.345271 88.393428 -80.794596 73.763211 -7.975576 1.639750 -2.220501 8.335131 1.840692 -0.123477 0.443032 0.096566 -0.214275 0.770642 0.167337 -2.082482 7.850870 1.573604 2.175593 16.689956 -0.939531 4.356012 -4.734927 -2.494627 0.106071 3.646961 -8.985886 -4.516921 -6.632799 89.634462 62.825893 -35.551476 28.822061 29.049206 -24.121961 -5.609223 -4.975530 1.507778 -0.677351 1.775140 -5.006696 -86.580835 -58.316523 -6.875776 -32.401852 3.225739 8.804138 -12.382078 -6.234719 -0.142746 -7.293804 21.025999 14.175604 2.679377 10.945720 -10.108413 -0.147144 -0.047624 -0.042986 -0.074219 -0.723866 -6.325158 5.251881 0.749047 13.829230 4.772260 16.026506 0.165199 -10.004299 0.440670 -0.611290 0.435490
-66.035403 88.379199 -80.982730 73.065139 -8.100071 1.663770 -2.191233 8.342772 1.757963 -0.122606 0.440258 0.095790 -0.212798 0.765929 0.166019 -2.075280 7.828618 1.566514 2.419047 16.641880 -0.936914 4.807815 -4.813907 -2.576063 0.088230 3.635147 -8.954247 -4.639909 -6.669773 89.556442 62.706582 -35.572246 28.846557 28.987697 -24.160018 -5.593077 -4.977731 1.481335 -0.661414 2.020994 -4.937964 -86.559879 -58.800884 -7.183013 -32.225368 3.351894 8.831303 -12.351376 -5.925250 0.017265 -7.487278 21.209393 14.196334 2.719758 11.126464 -10.254742 -0.024983 -0.049297 -0.068979 -0.082531 0.062151 -5.792516 5.224958 0.837410 13.640626 4.667202 16.048652 -0.040955 -9.764396 0.383469 -0.495779 0.315458
-65.720973 88.368438 -81.184006 72.400384 -8.217205 1.721992 -2.184656 8.329272 1.641450 -0.121680 0.437793 0.094443 -0.211225 0.761747 0.163706 -2.067294 7.810133 1.548894 2.656759 16.584200 -0.930020 5.248110 -4.910486 -2.648329 0.065527 3.634656 -8.912094 -4.790625 -6.702376 89.497485 62.579506 -35.587415 28.878483 28.939955 -24.191107 -5.591070 -4.985498 1.447066 -0.645220 2.260505 -4.880772 -86.522807 -59.303554 -7.482274 -32.008367 3.366097 8.808402 -12.241048 -5.687377 0.175236 -7.732863 21.409422 14.186993 2.752876 11.312036 -10.403454 0.111761 -0.041292 -0.084450 -0.089056 0.536051 -5.280630 5.141286 0.687874 13.513469 4.469552 16.666651 -0.176151 -9.443317 0.219459 -0.435603 0.156088
-65.411715 88.358953 -81.392252 71.802607 -8.287375 1.768302 -2.222176 8.261497 1.534634 -0.120545 0.434860 0.092506 -0.209298 0.756768 0.160374 -2.057696 7.788595 1.521994 2.886564 16.518873 -0.919243 5.672989 -5.021205 -2.711379 0.042788 3.655077 -8.863990 -4.967504 -6.731235 89.463980 62.464577 -35.595300 28.896188 28.910648 -24.214407 -5.609299 -4.999774 1.410007 -0.618037 2.477625 -4.841937 -86.477482 -59.834763 -7.763778 -31.753710 3.255934 8.745767 -12.027779 -5.552633 0.291178 -7.976944 21.616870 14.153806 2.773260 11.514338 -10.529052 0.265502 -0.030965 -0.113042 -0.099504 0.604344 -4.876758 5.040795 0.564526 13.509508 4.286520 17.519794 -0.305210 -9.191805 0.067555 -0.411849 0.036252
-65.106543 88.349838 -81.598275 71.243186 -8.334978 1.775025 -2.272198 8.169374 1.467915 -0.119098 0.430850 0.090133 -0.206844 0.749960 0.156293 -2.045859 7.758334 1.489575 3.107537 16.448632 -0.905145 6.080839 -5.141111 -2.765839 0.023431 3.698245 -8.815202 -5.169858 -6.750390 89.461233 62.373527 -35.592288 28.890984 28.899213 -24.235112 -5.643639 -5.016486 1.371750 -0.572809 2.666892 -4.822589 -86.431020 -60.402816 -8.024953 -31.464656 3.039874 8.654408 -11.723242 -5.483226 0.390174 -8.184310 21.817821 14.104285 2.778467 11.736399 -10.635389 0.434673 -0.012582 -0.151593 -0.113777 0.422853 -4.563449 4.963353 0.618653 13.601463 4.155191 18.365715 -0.416964 -9.011562 -0.031959 -0.430177 -0.041604
-64.804909 88.339806 -81.800199 70.720406 -8.365709 1.756358 -2.339494 8.059386 1.426350 -0.117534 0.425835 0.087670 -0.204197 0.741435 0.152062 -2.034412 7.718918 1.457201 3.322168 16.373805 -0.891362 6.477545 -5.269322 -2.819318 0.004624 3.754131 -8.774332 -5.388400 -6.750998 89.493649 62.307621 -35.573992 28.870827 28.904069 -24.252802 -5.689434 -5.027347 1.332964 -0.512302 2.837914 -4.828428 -86.388100 -60.996170 -8.264246 -31.147824 2.748202 8.529947 -11.355710 -5.469762 0.474207 -8.363627 22.004007 14.047069 2.767296 11.963303 -10.704917 0.622743 0.012237 -0.219316 -0.134164 0.221347 -4.304883 4.901457 0.756523 13.710241 4.052025 19.083946 -0.533182 -8.886354 -0.058111 -0.455054 -0.065859
-64.497762 88.328903 -81.991572 70.167026 -8.439372 1.728002 -2.363391 7.993540 1.402167 -0.116094 0.420263 0.085313 -0.201767 0.731955 0.148019 -2.026199 7.673576 1.427128 3.533103 16.292945 -0.881974 6.869540 -5.408140 -2.880420 -0.017687 3.809642 -8.746439 -5.602967 -6.723653 89.559030 62.273253 -35.548837 28.838628 28.918259 -24.262607 -5.742028 -5.026866 1.292466 -0.441881 3.003945 -4.867389 -86.350356 -61.595390 -8.486978 -30.822600 2.422530 8.358833 -10.947022 -5.449471 0.600866 -8.526669 22.174307 13.991955 2.740843 12.207779 -10.787743 0.831673 0.037069 -0.271898 -0.164000 0.219509 -3.998987 4.859360 0.836956 13.762504 3.944131 19.620388 -0.663434 -8.784224 -0.065105 -0.467743 -0.055320
-64.186755 88.315602 -82.174355 69.602336 -8.541868 1.716504 -2.365582 7.959125 1.365318 -0.114805 0.414404 0.083028 -0.199602 0.721978 0.144097 -2.021209 7.624704 1.398203 3.740030 16.204285 -0.877896 7.256710 -5.560776 -2.950904 -0.047865 3.855889 -8.726751 -5.799660 -6.664891 89.649866 62.276329 -35.525905 28.793091 28.936358 -24.262933 -5.799650 -5.016487 1.249548 -0.362327 3.174294 -4.944392 -86.313909 -62.189335 -8.712457 -30.521042 2.110336 8.143188 -10.500425 -5.442671 0.745123 -8.702285 22.324456 13.951819 2.702348 12.488232 -10.879272 1.052301 0.071002 -0.319605 -0.196778 0.406788 -3.642704 4.805243 0.851038 13.739628 3.826276 20.000973 -0.827005 -8.672742 -0.076631 -0.444552 -0.035466
